<?xml version="1.0" encoding="UTF-8"?>
<svg version="1.1" xmlns="http://www.w3.org/2000/svg" width="1024" height="1024">
<path d="M0 0 C337.92 0 675.84 0 1024 0 C1024 337.92 1024 675.84 1024 1024 C686.08 1024 348.16 1024 0 1024 C0 686.08 0 348.16 0 0 Z " fill="#FAFAFA" transform="translate(0,0)"/>
<path d="M0 0 C3.51966208 1.21588326 4.560187 2.0406818 6.48022461 5.12963867 C8.57887448 9.64112038 9.40204343 14.59588713 10.4375 19.4375 C13.53588211 33.72070107 16.93351392 46.3600823 29.5625 55 C37.394079 59.6282382 45.67019987 61.86214357 54.625 63.125 C60.47576491 63.98861025 65.47912815 65.94428822 70.4375 69.1875 C71.96596661 72.24443322 71.66992445 74.81734547 71.4375 78.1875 C69.78444183 81.42626953 68.50644817 82.15900035 65.1015625 83.56640625 C63.75979627 83.97626945 62.41303157 84.37001456 61.0625 84.75 C60.35077637 84.96269531 59.63905273 85.17539063 58.90576172 85.39453125 C54.49285924 86.6871698 50.06326566 87.73912438 45.5625 88.6875 C35.39185544 90.94065022 26.85590583 95.56407439 20.375 103.8125 C19.15714483 106.11011236 19.15714483 106.11011236 20.18432617 108.10620117 C21.47814063 110.25499686 22.87242148 112.00091119 24.55078125 113.86328125 C25.1742041 114.55760254 25.79762695 115.25192383 26.43994141 115.96728516 C27.42873291 117.0662915 27.42873291 117.0662915 28.4375 118.1875 C29.0876709 118.94208496 29.7378418 119.69666992 30.40771484 120.47412109 C38.25052187 130.39739819 38.25052187 130.39739819 49 135.7578125 C52.23206904 134.97403576 54.61231813 133.92745328 57.4375 132.1875 C58.08460938 131.85234375 58.73171875 131.5171875 59.3984375 131.171875 C63.7660586 128.65782968 65.99768037 125.57325522 67.5 120.83984375 C68.12561787 118.36083293 68.75061669 115.8816658 69.375 113.40234375 C70.37201121 110.38565175 70.889961 109.00067189 73.4375 107.1875 C76.22489332 106.769391 77.72424559 106.66781831 80.03515625 108.3515625 C81.93238107 110.83539444 82.02609465 112.84831559 82.375 115.9375 C83.29781496 122.19297515 84.49565995 126.7648082 89.5625 130.9375 C93.00904753 132.43599893 96.49454983 133.41483187 100.1328125 134.34375 C102.63038583 135.25811583 103.80598686 136.10771168 105.4375 138.1875 C105.99410929 141.28860892 105.77852425 142.66046252 104.0625 145.3125 C101.42395907 147.19717209 99.65053823 147.79253186 96.5625 148.625 C91.07229722 150.15095342 87.27567445 152.1494882 84.22265625 157.1953125 C81.92179106 161.89530047 80.96514204 166.11849798 80.80859375 171.33984375 C80.4375 173.1875 80.4375 173.1875 77.4375 175.1875 C74.69222715 175.53065911 73.13619059 175.70324168 70.87109375 174.03125 C68.96524065 171.58012558 68.61416121 169.40765938 68 166.375 C66.5095393 159.91373581 64.43317121 155.68360409 59.4375 151.1875 C59.9325 152.033125 60.4275 152.87875 60.9375 153.75 C62.83444437 158.09716418 63.43274554 161.50487675 61.74169922 166.06298828 C59.26426713 171.20504769 56.28249739 174.81489499 52.125 178.6875 C48.6961358 181.94959856 45.37102821 185.20711948 42.30175781 188.81445312 C38.14963091 193.58894302 33.70930281 198.041699 29.22265625 202.5 C28.36691513 203.35432617 27.51117401 204.20865234 26.62950134 205.08886719 C23.92202619 207.79078862 21.21107746 210.48919359 18.5 213.1875 C16.65276325 215.02971577 14.80575573 216.87216143 12.95898438 218.71484375 C8.45446997 223.20839061 3.94710595 227.6990632 -0.5625 232.1875 C1.99444439 234.13531335 4.43969729 235.80862506 7.31640625 237.24609375 C8.06293457 237.62556152 8.80946289 238.0050293 9.57861328 238.39599609 C10.3776709 238.80156738 11.17672852 239.20713867 12 239.625 C32.44695964 250.2162026 51.91868654 263.23545437 69.4375 278.1875 C70.59209367 279.15667218 71.74706414 280.12539558 72.90234375 281.09375 C79.12536027 286.33913754 85.12641483 291.65995814 90.765625 297.54296875 C92.35359506 299.27404561 92.35359506 299.27404561 94.4375 300.1875 C94.4375 300.8475 94.4375 301.5075 94.4375 302.1875 C95.4275 302.5175 96.4175 302.8475 97.4375 303.1875 C98.9453125 304.68359375 98.9453125 304.68359375 100.5625 306.625 C103.17910906 309.72232221 105.8601599 312.72194555 108.625 315.6875 C123.03967291 331.69563165 134.62958779 350.14101238 145.13671875 368.86914062 C145.96468964 370.34481846 146.79750255 371.81779762 147.63671875 373.28710938 C185.24179899 439.32060352 193.00296947 521.84606357 176.4375 595.1875 C176.20659668 596.21311035 175.97569336 597.2387207 175.73779297 598.29541016 C166.96066911 636.58297383 152.11312436 673.93305583 129.4375 706.1875 C128.90012207 706.95255859 128.36274414 707.71761719 127.80908203 708.50585938 C116.65406502 724.25336984 104.39764994 738.38419068 90.8125 752.0625 C90.33112579 752.54932251 89.84975159 753.03614502 89.35379028 753.53771973 C82.73017683 760.21710295 75.82178526 766.35677353 68.4375 772.1875 C67.6861377 772.79287598 66.93477539 773.39825195 66.16064453 774.02197266 C55.6799764 782.45774918 44.94917311 790.22088876 33.4375 797.1875 C32.65068848 797.66396973 31.86387695 798.14043945 31.05322266 798.63134766 C-42.47406759 842.72447666 -131.98486728 859.95467391 -216.0625 839.39453125 C-264.20547177 827.28652088 -311.0120354 804.61014432 -349.5625 773.1875 C-350.07167969 772.77983398 -350.58085937 772.37216797 -351.10546875 771.95214844 C-359.51525329 765.18798223 -367.22731362 757.72857653 -374.875 750.125 C-375.794021 749.21524414 -376.71304199 748.30548828 -377.65991211 747.36816406 C-383.71896076 741.28120866 -389.22731476 734.91342715 -394.5625 728.1875 C-395.49169871 727.05321806 -396.42237589 725.92014317 -397.35546875 724.7890625 C-409.27079811 709.97751116 -419.72070653 694.01375339 -428.5625 677.1875 C-428.89411133 676.56133789 -429.22572266 675.93517578 -429.56738281 675.29003906 C-448.77317723 638.76723818 -461.92272024 597.4139092 -465.5625 556.1875 C-465.6538623 555.19250488 -465.74522461 554.19750977 -465.83935547 553.17236328 C-466.49291123 545.49853893 -466.72140422 537.8871495 -466.6875 530.1875 C-466.68266602 529.01106934 -466.67783203 527.83463867 -466.67285156 526.62255859 C-466.64925466 523.14390323 -466.61076825 519.66589471 -466.5625 516.1875 C-466.54993164 515.2584082 -466.53736328 514.32931641 -466.52441406 513.37207031 C-465.65200147 466.27959448 -452.93334136 419.05690348 -431.5625 377.1875 C-431.15354492 376.37796875 -430.74458984 375.5684375 -430.32324219 374.734375 C-420.81897008 356.15245646 -408.8331096 338.28209532 -395.5625 322.1875 C-395.12534668 321.6502832 -394.68819336 321.11306641 -394.23779297 320.55957031 C-387.11352999 311.85517915 -379.36341879 303.78455433 -371.4375 295.8125 C-370.53161133 294.89734619 -369.62572266 293.98219238 -368.69238281 293.03930664 C-362.62233061 286.99724473 -356.27703033 281.49891894 -349.5625 276.1875 C-348.81049316 275.58147949 -348.05848633 274.97545898 -347.28369141 274.35107422 C-333.26548847 263.07047597 -318.57195812 253.5060657 -303.125 244.3125 C-302.22555664 243.77681396 -301.32611328 243.24112793 -300.39941406 242.68920898 C-294.5725192 239.2611493 -288.64828101 236.13099241 -282.5625 233.1875 C-283.96322977 230.02154003 -285.61416694 227.88737174 -288.05908203 225.44799805 C-288.77387726 224.73012619 -289.48867249 224.01225433 -290.22512817 223.27262878 C-290.999039 222.50590347 -291.77294983 221.73917816 -292.5703125 220.94921875 C-293.36976288 220.15022659 -294.16921326 219.35123444 -294.9928894 218.5280304 C-296.68690595 216.83703472 -298.38335203 215.14846996 -300.08203125 213.4621582 C-302.6619638 210.90035674 -305.23392961 208.33077023 -307.8046875 205.75976562 C-309.45526054 204.11411317 -311.10628802 202.46891636 -312.7578125 200.82421875 C-313.90046066 199.68323982 -313.90046066 199.68323982 -315.06619263 198.51921082 C-319.19757356 194.4237537 -323.40979384 190.48199874 -327.82449341 186.69282532 C-343.56600124 173.05876294 -343.56600124 173.05876294 -344.99609375 164.6328125 C-345.56310634 156.2780556 -342.12891307 151.30202354 -336.7463913 145.09227943 C-334.73399085 142.96568149 -332.68125569 140.88922074 -330.60449219 138.82543945 C-329.44221352 137.65286591 -329.44221352 137.65286591 -328.25645447 136.456604 C-325.71500908 133.89698691 -323.16276926 131.34847462 -320.609375 128.80078125 C-318.82550186 127.01234198 -317.04199952 125.22353279 -315.2588501 123.43437195 C-311.52832949 119.69493929 -307.79231946 115.96107544 -304.05224609 112.23120117 C-299.74839692 107.93883056 -295.45748397 103.63383582 -291.17279124 99.32234985 C-287.0256323 95.15024601 -282.86724623 90.98948949 -278.70438385 86.83305931 C-276.94555456 85.07438276 -275.18980119 83.31262414 -273.43727875 81.54766273 C-270.98040466 79.07581174 -268.5109827 76.61718499 -266.03808594 74.16137695 C-264.97003975 73.07882881 -264.97003975 73.07882881 -263.88041687 71.97441101 C-261.83560817 69.95888905 -259.74384017 68.0539999 -257.5625 66.1875 C-256.87353575 65.59340899 -256.1845715 64.99931797 -255.47472954 64.3872242 C-247.36869962 58.47357233 -238.30342373 59.36021516 -228.71728516 59.44628906 C-226.81411408 59.44138692 -224.9109483 59.43382303 -223.00779724 59.42381287 C-218.9245842 59.40806935 -214.84198045 59.41111935 -210.75877762 59.42905426 C-204.29397508 59.45744839 -197.82965211 59.44429991 -191.36483765 59.42596436 C-181.1335492 59.40195494 -170.90250161 59.4066185 -160.67120588 59.42308688 C-142.36288813 59.45162583 -124.05458843 59.43134405 -105.74628484 59.40068793 C-99.32853289 59.39107342 -92.91094248 59.39390011 -86.49319863 59.40736341 C-82.49050469 59.41420768 -78.48783748 59.41313251 -74.48513985 59.41035652 C-72.63895168 59.41086499 -70.79276053 59.41479624 -68.94658852 59.42253685 C-53.22002948 59.48607576 -36.44256533 59.54756189 -24.26171875 48.0078125 C-22.4678112 45.78751578 -20.97810547 43.66674346 -19.5625 41.1875 C-18.91410156 40.06601563 -18.26570313 38.94453125 -17.59765625 37.7890625 C-14.13284386 30.75854474 -12.95190174 22.79596539 -11.29492188 15.18945312 C-11.01326172 13.97837891 -10.73160156 12.76730469 -10.44140625 11.51953125 C-10.1997876 10.42358643 -9.95816895 9.3276416 -9.70922852 8.19848633 C-7.81375385 3.22150335 -5.42499601 0.28552611 0 0 Z " fill="#010101" transform="translate(653.5625,90.8125)"/>
<path d="M0 0 C2.45236206 1.98480225 2.45236206 1.98480225 5.04638672 4.62402344 C5.52355133 5.10381653 6.00071594 5.58360962 6.49234009 6.07794189 C8.06419458 7.66275349 9.62160466 9.26103238 11.1796875 10.859375 C12.27575702 11.96799653 13.37287067 13.07558664 14.47097778 14.18218994 C17.36038001 17.0981842 20.23845188 20.02508714 23.11340332 22.95532227 C27.70492408 27.63306727 32.30973463 32.29762515 36.92145157 36.95545197 C38.52320008 38.57748875 40.11784788 40.2062642 41.71188354 41.83587646 C51.08957044 51.98275765 51.08957044 51.98275765 63.67578125 56.19140625 C74.91612454 55.26573092 83.07680972 45.07971434 90.53515625 37.59765625 C91.21750839 36.91626083 91.89986053 36.23486542 92.60289001 35.53282166 C94.03344437 34.10294259 95.46275767 32.67182089 96.89086914 31.23950195 C99.05699074 29.06802289 101.22840174 26.90193675 103.40039062 24.73632812 C104.79979987 23.33625798 106.19889884 21.93587762 107.59765625 20.53515625 C108.23639175 19.89844498 108.87512726 19.2617337 109.53321838 18.60572815 C114.96539886 13.14567413 120.14791141 7.54141228 124.6875 1.3125 C126.69568013 -0.59135909 127.54574627 -1.00379177 130.33984375 -0.98046875 C133.69509467 -0.25106638 136.77734054 0.80754844 140 2 C140.7415332 2.27215332 141.48306641 2.54430664 142.24707031 2.82470703 C153.86202721 7.1398395 165.10827432 12.09244031 176 18 C176.67063477 18.36287109 177.34126953 18.72574219 178.03222656 19.09960938 C194.45741487 28.10672066 209.4152872 39.11794476 223 52 C224.30761261 53.10995024 225.61986271 54.21446892 226.9375 55.3125 C243.43108677 69.7611502 256.16516239 88.10006959 267 107 C267.39670898 107.6796582 267.79341797 108.35931641 268.20214844 109.05957031 C297.66136863 159.90327055 301.20230265 221.19909921 286.69140625 277.19140625 C271.16677737 333.65684357 232.44081809 383.63306088 181.71875 412.88671875 C180.47920388 413.59121131 179.23962133 414.29563979 178 415 C177.42378906 415.33596191 176.84757812 415.67192383 176.25390625 416.01806641 C146.99209777 433.02939554 110.1353998 443.94100066 76.25390625 444.23828125 C75.33376236 444.2480751 74.41361847 444.25786896 73.46559143 444.26795959 C53.96742173 444.43278891 35.07730433 444.50701315 16 440 C15.030625 439.78037598 14.06125 439.56075195 13.0625 439.33447266 C-22.08758613 431.25063937 -55.01714846 415.86227819 -83 393 C-83.51691406 392.58459961 -84.03382813 392.16919922 -84.56640625 391.74121094 C-98.7189642 380.34440291 -111.21228519 367.6199181 -122 353 C-122.83712299 351.89314098 -123.67436192 350.78636963 -124.51171875 349.6796875 C-144.98015639 322.23483053 -157.61942578 290.49651689 -164 257 C-164.16516113 256.15969238 -164.33032227 255.31938477 -164.50048828 254.45361328 C-169.71524654 226.70807944 -169.29486745 195.50189829 -163 168 C-162.81808105 167.17032715 -162.63616211 166.3406543 -162.44873047 165.48583984 C-158.19328668 146.45993698 -151.29792472 128.11832308 -142 111 C-141.64824707 110.33806641 -141.29649414 109.67613281 -140.93408203 108.99414062 C-130.58571166 89.55315719 -117.11684617 72.94446668 -102 57 C-101.17628906 56.12214844 -100.35257812 55.24429688 -99.50390625 54.33984375 C-92.88171063 47.47842267 -85.60582025 41.71113193 -78 36 C-77.4539209 35.58250488 -76.9078418 35.16500977 -76.34521484 34.73486328 C-60.50629123 22.66049787 -20.73461184 -6.53713662 0 0 Z " fill="#FAF9FA" transform="translate(449,399)"/>
<path d="M0 0 C0 0.66 0 1.32 0 2 C0.66 2 1.32 2 2 2 C2 2.66 2 3.32 2 4 C2.59194153 4.26662445 3.18388306 4.5332489 3.79376221 4.80795288 C6.04458795 6.02409121 7.50486766 7.26310428 9.29980469 9.07275391 C10.23031647 10.00349228 10.23031647 10.00349228 11.17962646 10.95303345 C11.83706848 11.62079803 12.4945105 12.28856262 13.171875 12.9765625 C14.1955014 14.00443375 14.1955014 14.00443375 15.23980713 15.05307007 C17.41461598 17.23905845 19.58236072 19.43190429 21.75 21.625 C23.2247999 23.10983255 24.70005506 24.59421306 26.17578125 26.078125 C29.78915448 29.7135291 33.39620853 33.35509824 37 37 C34.56045285 38.62636477 32.59660618 39.66064487 29.921875 40.7421875 C-11.07345264 57.62641004 -49.55629809 82.63113664 -77 118 C-78.01789143 119.2776129 -79.03614582 120.55493668 -80.0546875 121.83203125 C-87.8899965 131.75465818 -94.73673585 142.02164143 -101 153 C-101.4237793 153.73379883 -101.84755859 154.46759766 -102.28417969 155.22363281 C-116.44794807 179.99117553 -125.7504407 207.80093766 -130 236 C-130.10296387 236.64743164 -130.20592773 237.29486328 -130.31201172 237.96191406 C-134.21235387 263.38499736 -133.13721797 290.70832786 -129 316 C-128.83902832 316.98935547 -128.67805664 317.97871094 -128.51220703 318.99804688 C-118.62205087 377.10390189 -85.95364452 432.94852096 -39 469 C-38.44473633 469.42635742 -37.88947266 469.85271484 -37.31738281 470.29199219 C-1.8465995 497.34796035 39.8330106 516.01955886 84 523 C84.73943848 523.11714355 85.47887695 523.23428711 86.24072266 523.35498047 C152.10649449 533.1209343 221.9344303 514.07744288 275.40527344 475.02197266 C293.72243408 461.36555592 310.53502423 445.49852059 324 427 C324.48952148 426.33355469 324.97904297 425.66710937 325.48339844 424.98046875 C359.56288804 378.38859837 377.48059607 322.94514635 376 265 C375.97164062 263.77667969 375.94328125 262.55335938 375.9140625 261.29296875 C373.56788319 194.48860005 340.89675413 135.08639308 293 90 C289.47502667 86.81553719 285.77123794 83.88683258 282 81 C281.02289062 80.21753906 280.04578125 79.43507813 279.0390625 78.62890625 C256.91509114 61.01211854 232.18581339 48.41722869 206 38 C210.24210136 32.93288701 214.67717089 28.18776629 219.3671875 23.53515625 C220.38656906 22.51789711 220.38656906 22.51789711 221.42654419 21.48008728 C223.57367002 19.33850859 225.72426627 17.20045471 227.875 15.0625 C229.34137773 13.60114411 230.8075258 12.13955774 232.2734375 10.67773438 C235.84631 7.11582065 239.42229684 3.55706135 243 0 C245.99200362 1.39591279 248.98062185 2.79893778 251.96875 4.203125 C252.80374023 4.59258301 253.63873047 4.98204102 254.49902344 5.38330078 C275.25142141 15.15506099 294.31689735 28.46464727 312 43 C312.53834473 43.43538086 313.07668945 43.87076172 313.63134766 44.31933594 C327.88602806 55.88453416 341.11123753 69.02353504 353 83 C353.74310425 83.85899902 353.74310425 83.85899902 354.5012207 84.73535156 C369.20501715 101.83541309 381.7537956 120.9181308 392 141 C392.40911621 141.79905762 392.81823242 142.59811523 393.23974609 143.42138672 C405.80102683 168.23051893 413.9009303 193.70010811 419.25 220.9375 C419.40122314 221.70408936 419.55244629 222.47067871 419.70825195 223.26049805 C422.47554293 238.168868 423.32523838 252.80653921 423.26074219 267.94702148 C423.25002557 270.93038302 423.26070178 273.91314099 423.2734375 276.89648438 C423.28291554 288.73156275 422.66759761 300.28212005 421 312 C420.82839355 313.21937256 420.65678711 314.43874512 420.47998047 315.69506836 C417.86966418 333.1276428 414.15142498 350.14263575 409 367 C408.63430908 368.2063208 408.63430908 368.2063208 408.26123047 369.43701172 C397.74549669 403.05959067 378.53633707 436.10042474 356 463 C355.19046875 463.99386719 354.3809375 464.98773437 353.546875 466.01171875 C341.52591498 480.57329108 328.08295117 494.5983828 313 506 C311.74203524 506.99556091 310.48565708 507.99312838 309.23046875 508.9921875 C271.28309518 538.94452827 227.09432837 557.89002976 180 568 C178.8548291 568.25088379 178.8548291 568.25088379 177.68652344 568.50683594 C159.57304448 572.42258104 141.30482632 573.35463266 122.81958008 573.31567383 C119.7003275 573.312513 116.58202724 573.33609675 113.46289062 573.36132812 C70.88663829 573.49392468 26.5129791 563.18382661 -11.09472656 543.01367188 C-13.07959389 541.95765328 -15.08014712 540.93753689 -17.0859375 539.921875 C-34.13628777 531.21451261 -49.95956375 520.82717507 -65 509 C-65.99515625 508.21882813 -66.9903125 507.43765625 -68.015625 506.6328125 C-82.01059212 495.39685318 -95.52612953 482.82394032 -107 469 C-107.43860352 468.48050781 -107.87720703 467.96101563 -108.32910156 467.42578125 C-122.37222996 450.76163674 -134.5156126 433.0992505 -145 414 C-145.43296387 413.22301758 -145.86592773 412.44603516 -146.31201172 411.64550781 C-183.06498014 345.48742293 -189.14378041 264.46536834 -169.1484375 192.125 C-163.47362019 172.5314946 -155.53665245 154.00749826 -146 136 C-145.6709668 135.37383789 -145.34193359 134.74767578 -145.00292969 134.10253906 C-135.99066583 117.096789 -125.15533549 100.91702772 -113 86 C-112.18402344 84.98035156 -111.36804688 83.96070313 -110.52734375 82.91015625 C-97.005911 66.37509052 -81.32410169 50.51432539 -64 38 C-62.55753906 36.88238281 -62.55753906 36.88238281 -61.0859375 35.7421875 C-14.88262195 0 -14.88262195 0 0 0 Z " fill="#FEC515" transform="translate(391,341)"/>
<path d="M0 0 C62.7 0 125.4 0 190 0 C182.09992968 23.70021097 174.10234029 47.36817415 166 71 C118.81 71 71.62 71 23 71 C18.4984254 59.74606349 18.4984254 59.74606349 16.80175781 54.58813477 C16.42166565 53.43736954 16.04157349 52.28660431 15.64996338 51.10096741 C15.25500671 49.89331223 14.86005005 48.68565704 14.453125 47.44140625 C14.0330124 46.16246022 13.61274169 44.88356611 13.19232178 43.60472107 C12.31954959 40.94723412 11.44921814 38.28896347 10.58056641 35.63012695 C9.46724775 32.22333702 8.34688103 28.81891105 7.22462845 25.41505527 C6.35850775 22.78499814 5.49650198 20.15360641 4.63570404 17.5218029 C4.02444498 15.65583073 3.40937518 13.79110828 2.79425049 11.92640686 C2.42676697 10.79770676 2.05928345 9.66900665 1.68066406 8.50610352 C1.35519592 7.51256363 1.02972778 6.51902374 0.69439697 5.49537659 C0 3 0 3 0 0 Z " fill="#5CD0FE" transform="translate(418,175)"/>
<path d="M0 0 C42.9 0 85.8 0 130 0 C128.02234749 5.93295752 125.99758804 11.66257432 123.5859375 17.40625 C123.259422 18.1912236 122.93290649 18.9761972 122.59649658 19.78495789 C121.52554908 22.35785124 120.45024126 24.92889847 119.375 27.5 C118.6121283 29.3309948 117.84960229 31.16213367 117.08740234 32.9934082 C115.50689352 36.78995637 113.92491144 40.58588534 112.34179688 44.38134766 C108.75712483 52.97825029 105.19127676 61.58295448 101.625 70.1875 C100.92961399 71.86483074 100.23422006 73.54215819 99.53881836 75.21948242 C97.35837594 80.47930859 95.17897822 85.73956711 93 91 C92.59896057 91.96812622 92.19792114 92.93625244 91.784729 93.93371582 C89.24617134 100.06256709 86.7093057 106.19211537 84.17425537 112.32241821 C83.36674978 114.27471032 82.55886478 116.22684556 81.75054932 118.17880249 C76.40753004 131.08284975 71.15843088 144.02103354 66 157 C63.1715643 153.64234937 61.61126614 149.99967913 60.0234375 145.95703125 C59.60032036 144.90220299 59.60032036 144.90220299 59.1686554 143.82606506 C58.55559588 142.29640339 57.9451473 140.76569331 57.33700562 139.23406982 C55.66881509 135.03488452 53.97938942 130.84423296 52.29296875 126.65234375 C51.76468224 125.33704681 51.76468224 125.33704681 51.22572327 123.99517822 C47.44547613 114.59445074 43.57505037 105.23176588 39.6875 95.875 C39.16255951 94.61077713 39.16255951 94.61077713 38.62701416 93.3210144 C29.12374097 70.43999816 19.56076192 47.58341415 9.94897461 24.74777222 C8.71094439 21.80644026 7.47396464 18.86466694 6.23693848 15.9229126 C5.39470326 13.92181372 4.55044633 11.9215764 3.70605469 9.92138672 C3.21266602 8.74850098 2.71927734 7.57561523 2.2109375 6.3671875 C1.78087402 5.34737793 1.35081055 4.32756836 0.90771484 3.27685547 C0 1 0 1 0 0 Z " fill="#5BCFFD" transform="translate(447,263)"/>
<path d="M0 0 C27.06 0 54.12 0 82 0 C78.17491701 4.46259682 74.41538819 8.7292207 70.26724243 12.85301208 C69.45100924 13.67052691 69.45100924 13.67052691 68.61828649 14.50455719 C66.81510482 16.309371 65.00840034 18.1106143 63.20166016 19.91186523 C61.90008413 21.21315887 60.59872889 22.51467337 59.2975769 23.81639099 C55.77961844 27.33463541 52.25859351 30.84979619 48.73699617 34.36439776 C45.05165887 38.04346798 41.36916845 41.7253855 37.68637085 45.40699768 C30.71871294 52.37155215 23.74851066 59.33355437 16.77738321 66.29463583 C8.83829345 74.22253376 0.90205568 82.15328405 -7.03394771 90.08427131 C-23.35280106 106.39268265 -39.67522006 122.69752136 -56 139 C-56.33 138.34 -56.66 137.68 -57 137 C-56.1925976 134.68140944 -55.31751174 132.47923565 -54.34375 130.23046875 C-53.90394051 129.18835236 -53.90394051 129.18835236 -53.45524597 128.12518311 C-52.81498669 126.61003244 -52.17124535 125.09634971 -51.52450562 123.58395386 C-49.76750161 119.47408959 -48.0360206 115.35346389 -46.30078125 111.234375 C-45.76068169 109.95523476 -45.76068169 109.95523476 -45.20967102 108.6502533 C-41.92526708 100.85898343 -38.7467589 93.02713626 -35.59112549 85.18301392 C-29.71285436 70.57548039 -23.70833281 56.02329787 -17.625 41.5 C-17.2581308 40.623508 -16.8912616 39.74701599 -16.51327515 38.84396362 C-11.07811079 25.86589754 -5.54271281 12.93299657 0 0 Z " fill="#008DDD" transform="translate(595,263)"/>
<path d="M0 0 C26.73 0 53.46 0 81 0 C89.037813 17.22388501 89.037813 17.22388501 92.12109375 24.765625 C92.64377586 26.03125275 92.64377586 26.03125275 93.17701721 27.32244873 C94.2670835 29.9636453 95.35251725 32.60671169 96.4375 35.25 C97.87250286 38.73486795 99.30933976 42.21897872 100.74609375 45.703125 C101.1006514 46.56400223 101.45520905 47.42487946 101.82051086 48.31184387 C104.19984416 54.08266839 106.60978024 59.83988577 109.0390625 65.58984375 C113.78922737 76.83699938 118.41152663 88.13576888 123.03295898 99.4362793 C123.72766371 101.13461845 124.42240616 102.83294218 125.1171875 104.53125 C125.45333572 105.35321365 125.78948395 106.17517731 126.13581848 107.02204895 C128.09384706 111.80459676 130.07158376 116.57806907 132.0703125 121.34375 C132.71625366 122.89195435 132.71625366 122.89195435 133.37524414 124.47143555 C134.14418213 126.31147902 134.91903965 128.14906452 135.70092773 129.98364258 C136.5259188 131.96569532 137.27311338 133.97990615 138 136 C137.67 136.66 137.34 137.32 137 138 C132.65117952 133.72312692 128.54199605 129.2601479 124.4609375 124.72851562 C121.50269312 121.48582467 118.49334716 118.68260448 115 116 C113.31337542 114.35353315 111.64488294 112.68816933 110 111 C109.401875 110.443125 108.80375 109.88625 108.1875 109.3125 C107 108 107 108 107 106 C105.02 105.01 105.02 105.01 103 104 C103 103.34 103 102.68 103 102 C102.42743847 101.75233918 101.85487694 101.50467836 101.26496506 101.24951267 C98.64196584 99.80248339 96.8784923 98.12731888 94.76055908 96.00779724 C93.92205917 95.17349182 93.08355927 94.3391864 92.21965027 93.479599 C90.85263725 92.10415672 90.85263725 92.10415672 89.45800781 90.70092773 C88.48248257 89.72647572 87.50652446 88.7524569 86.53016663 87.77883911 C83.88332947 85.13684533 81.24277788 82.48865048 78.6034441 79.83916354 C75.84273591 77.06967183 73.07675702 74.30545344 70.3114624 71.5405426 C65.67118385 66.89932788 61.03479338 62.2542578 56.40087891 57.60668945 C51.0362 52.22626242 45.6662895 46.85110276 40.29336476 41.47891086 C35.12989224 36.3160476 29.96927748 31.15033827 24.81026459 25.98301888 C22.61167487 23.78089024 20.41223036 21.57962055 18.21213531 19.3789959 C15.6259127 16.79177241 13.04224255 14.20202677 10.46056938 11.61026382 C9.05478528 10.20014265 7.64653681 8.79247963 6.23823547 7.38487244 C5.41101486 6.55338684 4.58379425 5.72190125 3.73150635 4.86521912 C3.00664158 4.1386785 2.28177681 3.41213789 1.53494644 2.66358089 C0 1 0 1 0 0 Z " fill="#008DDC" transform="translate(348,263)"/>
<path d="M0 0 C27.72 0 55.44 0 84 0 C80.05666394 5.25778141 76.13947146 10.27848407 71.8125 15.1875 C70.66474863 16.50076401 69.51762367 17.81457573 68.37109375 19.12890625 C67.80374512 19.77875488 67.23639648 20.42860352 66.65185547 21.09814453 C62.83689307 25.49048226 59.09958937 29.94902548 55.3515625 34.3984375 C53.9668453 36.03928736 52.57781109 37.67638805 51.1875 39.3125 C45.38180498 46.14745951 39.65942622 53.0429981 34 60 C32.31377838 62.06354879 30.62557579 64.1254667 28.9375 66.1875 C28.18339844 67.10917969 27.42929687 68.03085938 26.65234375 68.98046875 C26.10707031 69.64691406 25.56179688 70.31335938 25 71 C22 70 22 70 21.07218933 68.18533325 C20.81271011 67.39214691 20.5532309 66.59896057 20.28588867 65.78173828 C19.98514938 64.88214386 19.6844101 63.98254944 19.3745575 63.05569458 C19.05888321 62.07051849 18.74320892 61.08534241 18.41796875 60.0703125 C18.08130692 59.05137909 17.74464508 58.03244568 17.39778137 56.9826355 C16.31642547 53.70033245 15.25191757 50.41283016 14.1875 47.125 C13.48219277 44.97751188 12.77582413 42.83037206 12.06835938 40.68359375 C10.34966261 35.45567241 8.64996102 30.22188244 6.96185303 24.98400879 C6.3288343 23.02016047 5.69415374 21.05684692 5.05767822 19.09411621 C4.19648593 16.43663342 3.34128284 13.77730893 2.48828125 11.1171875 C2.23362595 10.33296417 1.97897064 9.54874084 1.71659851 8.74075317 C0.75451148 5.71682073 0 3.19417025 0 0 Z " fill="#008DDD" transform="translate(418,175)"/>
<path d="M0 0 C27.06 0 54.12 0 82 0 C74.33333333 23 66.66666667 46 59 69 C58.01 69 57.02 69 56 69 C54.1427285 67.08572017 52.48032912 65.19430105 50.8125 63.125 C50.32201172 62.53074219 49.83152344 61.93648437 49.32617188 61.32421875 C45.8674292 57.11947276 42.47453618 52.86129977 39.09375 48.59375 C36.61188959 45.51920651 34.06151487 42.50820956 31.5 39.5 C27.61042566 34.93213477 23.82251921 30.30153863 20.09765625 25.59765625 C17.59561646 22.49922709 15.02087678 19.4681258 12.4375 16.4375 C0 1.82531223 0 1.82531223 0 0 Z " fill="#008DDD" transform="translate(526,175)"/>
<path d="M0 0 C1.77191629 2.65787443 2.60725499 4.49738246 3.55639648 7.48046875 C3.9921122 8.83833496 3.9921122 8.83833496 4.43663025 10.22363281 C4.7450032 11.20170898 5.05337616 12.17978516 5.37109375 13.1875 C5.69408951 14.20038086 6.01708527 15.21326172 6.34986877 16.25683594 C7.03374282 18.40472475 7.7153173 20.55334689 8.39477539 22.70263672 C9.42517618 25.9610289 10.46292149 29.21700733 11.50195312 32.47265625 C12.16710698 34.56496424 12.83183375 36.65740806 13.49609375 38.75 C13.80244247 39.71188232 14.1087912 40.67376465 14.42442322 41.66479492 C14.71805252 42.59525635 15.01168182 43.52571777 15.31420898 44.484375 C15.6948777 45.68658691 15.6948777 45.68658691 16.08323669 46.91308594 C17.47076851 51.58516591 18.71762785 56.29796879 20 61 C-6.4 61 -32.8 61 -60 61 C-56.20417556 56.57153816 -52.48071868 52.33655704 -48.36181641 48.24829102 C-47.83424744 47.72057602 -47.30667847 47.19286102 -46.76312256 46.64915466 C-45.044966 44.93168636 -43.32331148 43.21777247 -41.6015625 41.50390625 C-40.39922532 40.30343713 -39.19711095 39.10274482 -37.99520874 37.90184021 C-34.85090837 34.76133452 -31.70361521 31.62384519 -28.55566406 28.48699951 C-25.33605827 25.27767382 -22.11932679 22.06546995 -18.90234375 18.85351562 C-12.60435365 12.56620898 -6.30319435 6.28208894 0 0 Z " fill="#008FDF" transform="translate(403,185)"/>
<path d="M0 0 C1.10150584 0.93342814 2.20145962 1.86868795 3.30078125 2.8046875 C3.91348877 3.32530762 4.52619629 3.84592773 5.1574707 4.38232422 C16.07216881 13.96504446 18.19395654 27.07715914 19.14306641 41.11621094 C19.34503069 44.6112068 19.51878907 48.10318185 19.65625 51.6015625 C20.0529173 55.61572881 20.0529173 55.61572881 22 59 C27.14583276 60.34378159 27.14583276 60.34378159 32.0859375 59.078125 C35.07736385 55.83029068 35.71250874 52.03097862 36.75 47.8125 C37.08064453 46.5450293 37.08064453 46.5450293 37.41796875 45.25195312 C37.95867835 43.17139661 38.48113053 41.08611044 39 39 C41 39 41 39 42.5859375 40.57421875 C43.17632813 41.27160156 43.76671875 41.96898437 44.375 42.6875 C45.31666016 43.78964844 45.31666016 43.78964844 46.27734375 44.9140625 C47.53315471 46.43470434 48.74807434 47.98938864 49.9375 49.5625 C52.43052843 52.50880632 55.23598047 54.88359126 58.1953125 57.3515625 C60 59 60 59 62 62 C34.61 62 7.22 62 -21 62 C-6.92553191 19.77659574 -6.92553191 19.77659574 0 0 Z " fill="#008FDE" transform="translate(622,184)"/>
<path d="M0 0 C2.98013181 2.98013181 4.40987141 6.80904012 6.16992188 10.59375 C11.25151431 21.1400261 20.87174425 28.95971659 31.8125 33.0625 C32.864375 33.371875 33.91625 33.68125 35 34 C32.86076254 36.13923746 31.24615883 36.85019254 28.5 38.0625 C15.05475721 44.71721613 7.40747465 56.39734637 2 70 C1.34 70 0.68 70 0 70 C-0.27972656 69.10539062 -0.55945313 68.21078125 -0.84765625 67.2890625 C-4.9800922 54.82531676 -10.1219287 45.58222235 -22 39 C-25.94273537 37.16595309 -29.92612467 35.51895352 -34 34 C-34 33.34 -34 32.68 -34 32 C-33.33355469 31.8040625 -32.66710937 31.608125 -31.98046875 31.40625 C-18.47079645 27.022692 -9.08869966 18.97558121 -2.62109375 6.296875 C-1.68202453 4.21587144 -0.80202511 2.13697481 0 0 Z " fill="#F8F8F8" transform="translate(652,131)"/>
<path d="M0 0 C26.73 0 53.46 0 81 0 C80.67 0.66 80.34 1.32 80 2 C54.92 2 29.84 2 4 2 C20.0982299 18.12735481 20.0982299 18.12735481 36.20117188 34.25 C42.76701168 40.82177809 49.33232311 47.39407815 55.89428711 53.96972656 C60.67289782 58.7582979 65.45325793 63.54511466 70.2357356 68.32982409 C72.76844183 70.86383508 75.30025749 73.3987218 77.82998085 75.93571091 C80.65257194 78.76634322 83.47906123 81.59305147 86.3059082 84.41943359 C87.56610527 85.68502357 87.56610527 85.68502357 88.85176086 86.97618103 C89.62157288 87.74461838 90.39138489 88.51305573 91.18452454 89.30477905 C91.85282445 89.97400076 92.52112436 90.64322247 93.20967579 91.33272362 C95.10050148 93.18336369 95.10050148 93.18336369 98 95 C98 95.66 98 96.32 98 97 C99.485 97.495 99.485 97.495 101 98 C102.1875 100.0625 102.1875 100.0625 103 102 C99.59404087 100.52675638 97.37516142 98.62436048 94.76055908 96.00779724 C93.92205917 95.17349182 93.08355927 94.3391864 92.21965027 93.479599 C90.85263725 92.10415672 90.85263725 92.10415672 89.45800781 90.70092773 C88.48248257 89.72647572 87.50652446 88.7524569 86.53016663 87.77883911 C83.88332947 85.13684533 81.24277788 82.48865048 78.6034441 79.83916354 C75.84273591 77.06967183 73.07675702 74.30545344 70.3114624 71.5405426 C65.67118385 66.89932788 61.03479338 62.2542578 56.40087891 57.60668945 C51.0362 52.22626242 45.6662895 46.85110276 40.29336476 41.47891086 C35.12989224 36.3160476 29.96927748 31.15033827 24.81026459 25.98301888 C22.61167487 23.78089024 20.41223036 21.57962055 18.21213531 19.3789959 C15.6259127 16.79177241 13.04224255 14.20202677 10.46056938 11.61026382 C9.05478528 10.20014265 7.64653681 8.79247963 6.23823547 7.38487244 C5.41101486 6.55338684 4.58379425 5.72190125 3.73150635 4.86521912 C3.00664158 4.1386785 2.28177681 3.41213789 1.53494644 2.66358089 C0 1 0 1 0 0 Z " fill="#00A0E7" transform="translate(348,263)"/>
<path d="M0 0 C42.9 0 85.8 0 130 0 C127.87655406 6.37033781 126.03070395 11.2521132 123 17 C122.505 16.01 122.505 16.01 122 15 C123.65 10.71 125.3 6.42 127 2 C86.08 2 45.16 2 3 2 C2.67 2.99 2.34 3.98 2 5 C1.34 3.35 0.68 1.7 0 0 Z " fill="#6DE9FE" transform="translate(447,263)"/>
<path d="M0 0 C0 3 0 3 -1.20253754 4.57168102 C-1.77036201 5.13674012 -2.33818649 5.70179922 -2.92321777 6.28398132 C-3.57110764 6.93599518 -4.2189975 7.58800903 -4.88652039 8.25978088 C-5.96653069 9.32361244 -5.96653069 9.32361244 -7.06835938 10.40893555 C-7.81938431 11.16039856 -8.57040924 11.91186157 -9.3441925 12.68609619 C-11.83700239 15.17681026 -14.34028249 17.65672083 -16.84375 20.13671875 C-18.57076081 21.85813645 -20.29711197 23.58021618 -22.02282715 25.30293274 C-26.57339328 29.84202772 -31.1328958 34.37204321 -35.6942749 38.90026855 C-40.34454986 43.5198917 -44.98637601 48.14798672 -49.62890625 52.77539062 C-58.7443228 61.85860295 -67.86891244 70.93254283 -77 80 C-77.33 79.34 -77.66 78.68 -78 78 C-76.17430076 74.15642266 -74.70655315 72.82594368 -71 71 C-69.36176529 69.65238286 -69.36176529 69.65238286 -67.82354736 68.0640564 C-66.91919197 67.163825 -66.91919197 67.163825 -65.99656677 66.2454071 C-65.34704544 65.58869522 -64.69752411 64.93198334 -64.02832031 64.25537109 C-63.3352327 63.56257553 -62.64214508 62.86977997 -61.92805481 62.1559906 C-59.63997201 59.86651526 -57.35905349 57.5700387 -55.078125 55.2734375 C-53.4924408 53.68402291 -51.90631426 52.09504952 -50.31976318 50.50650024 C-46.14622146 46.32532415 -41.97872083 42.13817654 -37.81243896 37.94976807 C-33.55957281 33.67643937 -29.30103581 29.40877027 -25.04296875 25.140625 C-16.68974441 16.76595419 -8.34288952 8.38496557 0 0 Z " fill="#00A7F5" transform="translate(616,322)"/>
<path d="M0 0 C2.8554442 2.18484746 3.9498583 4.76848427 5.25 8.0625 C5.78367187 9.37927734 5.78367187 9.37927734 6.328125 10.72265625 C7 13 7 13 6 15 C1.74790208 10.87675353 -2.13635705 6.48717034 -6 2 C-3 0 -3 0 0 0 Z " fill="#0194DD" transform="translate(479,386)"/>
<path d="M0 0 C4.1641745 1.43096178 7.16796181 3.48057387 10.625 6.1875 C19.7432156 13.70377451 19.7432156 13.70377451 30.234375 18.55859375 C32 19 32 19 33.25 21.0625 C33.4975 21.701875 33.745 22.34125 34 23 C29.45211402 21.39074804 25.56246082 19.05272291 21.5 16.5 C20.80455078 16.06437744 20.10910156 15.62875488 19.39257812 15.17993164 C12.62298909 10.87180097 6.12348165 6.19027982 0 1 C0 0.67 0 0.34 0 0 Z " fill="#F1DB18" transform="translate(326,849)"/>
<path d="M0 0 C2.49361571 1.20381448 4.68143083 2.45428722 7 4 C7 4.66 7 5.32 7 6 C4.69 7.32 2.38 8.64 0 10 C-1.65 8.35 -3.3 6.7 -5 5 C-3.35 3.35 -1.7 1.7 0 0 Z " fill="#ECEDED" transform="translate(728,227)"/>
<path d="M0 0 C0.66 0 1.32 0 2 0 C2 0.66 2 1.32 2 2 C2.5887793 2.26280762 3.17755859 2.52561523 3.78417969 2.79638672 C6.10339241 4.05616181 7.60949403 5.38004021 9.453125 7.2578125 C10.071875 7.88300781 10.690625 8.50820313 11.328125 9.15234375 C11.96234375 9.80332031 12.5965625 10.45429688 13.25 11.125 C13.8996875 11.78371094 14.549375 12.44242187 15.21875 13.12109375 C16.81711727 14.74296643 18.41061897 16.3693281 20 18 C19.34 18.66 18.68 19.32 18 20 C15.49195282 17.54976242 12.9949924 15.08852402 10.5 12.625 C9.78457031 11.92632812 9.06914062 11.22765625 8.33203125 10.5078125 C7.65527344 9.8375 6.97851562 9.1671875 6.28125 8.4765625 C5.65283203 7.85861816 5.02441406 7.24067383 4.37695312 6.60400391 C3 5 3 5 3 3 C2.01 2.67 1.02 2.34 0 2 C0 1.34 0 0.68 0 0 Z " fill="#E0C015" transform="translate(391,343)"/>
<path d="M0 0 C-1.8331267 5.99932374 -4.07321751 11.44920563 -7 17 C-8 15 -8 15 -7.00390625 11.9609375 C-5.66927083 8.640625 -4.33463542 5.3203125 -3 2 C-8.28 2 -13.56 2 -19 2 C-19 1.67 -19 1.34 -19 1 C-16.20837429 0.83262201 -13.41670379 0.66606598 -10.625 0.5 C-9.8309375 0.45230469 -9.036875 0.40460938 -8.21875 0.35546875 C-2.2265625 0 -2.2265625 0 0 0 Z " fill="#69E1F7" transform="translate(577,263)"/>
<path d="M0 0 C0.33 0.66 0.66 1.32 1 2 C-2.62075016 6.97853147 -7.41915339 12.2095767 -13 15 C-11.38989473 10.92623969 -8.46177729 8.23492931 -5.375 5.25 C-4.859375 4.74339844 -4.34375 4.23679687 -3.8125 3.71484375 C-2.54616661 2.47196098 -1.2736856 1.23534724 0 0 Z " fill="#FDE51B" transform="translate(301,402)"/>
<path d="M0 0 C3.01598607 1.50799304 3.13739043 3.67733534 4.1875 6.8125 C4.55230469 7.87082031 4.91710937 8.92914062 5.29296875 10.01953125 C5.98036862 12.91724451 6.03931179 14.26601422 5 17 C4.32968281 15.0429132 3.66385317 13.08428887 3 11.125 C2.62875 10.03445313 2.2575 8.94390625 1.875 7.8203125 C1 5 1 5 1 3 C0.34 3 -0.32 3 -1 3 C-0.67 2.01 -0.34 1.02 0 0 Z " fill="#F5DF1A" transform="translate(268,690)"/>
<path d="M0 0 C0.33 0 0.66 0 1 0 C1.09796875 0.61488281 1.1959375 1.22976562 1.296875 1.86328125 C2.13291046 6.99409305 2.13291046 6.99409305 5.125 11.0625 C5.74375 11.371875 6.3625 11.68125 7 12 C4.69 12 2.38 12 0 12 C0 8.04 0 4.08 0 0 Z " fill="#00A0EB" transform="translate(640,233)"/>
<path d="M0 0 C1.65 1.65 3.3 3.3 5 5 C3.68 4.67 2.36 4.34 1 4 C0.01 6.64 -0.98 9.28 -2 12 C-3.15957207 8.52128379 -2.77456651 7.65780355 -1.5625 4.3125 C-1.13130859 3.10013672 -1.13130859 3.10013672 -0.69140625 1.86328125 C-0.46324219 1.24839844 -0.23507812 0.63351563 0 0 Z " fill="#01A7ED" transform="translate(622,184)"/>
<path d="M0 0 C1.32 0.33 2.64 0.66 4 1 C0.535 3.97 0.535 3.97 -3 7 C-1.125 1.125 -1.125 1.125 0 0 Z " fill="#01A3E7" transform="translate(541,395)"/>
<path d="M0 0 C1 3 1 3 1 5 C0.34 5 -0.32 5 -1 5 C-1.33 6.32 -1.66 7.64 -2 9 C-2.66 8.67 -3.32 8.34 -4 8 C-2.68 5.36 -1.36 2.72 0 0 Z " fill="#F6DB18" transform="translate(234,501)"/>
<path d="M0 0 C3.44216672 2.6598561 3.99504674 5.90288286 5 10 C0.07692308 5.69230769 0.07692308 5.69230769 -0.3125 2.1875 C-0.209375 1.465625 -0.10625 0.74375 0 0 Z " fill="#02A6E8" transform="translate(481,391)"/>
</svg>
