<?xml version="1.0" standalone="no"?>
<!DOCTYPE svg PUBLIC "-//W3C//DTD SVG 20010904//EN"
 "http://www.w3.org/TR/2001/REC-SVG-20010904/DTD/svg10.dtd">
<svg version="1.0" xmlns="http://www.w3.org/2000/svg"
 width="500.000000pt" height="500.000000pt" viewBox="0 0 500.000000 500.000000"
 preserveAspectRatio="xMidYMid meet">

<g transform="translate(0.000000,500.000000) scale(0.100000,-0.100000)"
fill="#000000" stroke="none">
<path d="M3180 4115 c0 -9 21 -20 58 -31 31 -9 70 -23 85 -31 16 -8 81 -18
145 -23 64 -6 149 -15 188 -21 140 -22 93 -3 -82 34 -99 21 -222 49 -275 62
-112 29 -119 30 -119 10z"/>
<path d="M1755 4110 c-16 -4 -67 -16 -112 -26 -46 -10 -83 -22 -83 -26 0 -4
-7 -8 -15 -8 -29 0 -15 -18 23 -28 24 -6 29 -10 15 -11 -12 -1 -25 -5 -28 -11
-3 -5 -17 -10 -30 -10 -35 0 -42 -20 -14 -41 l23 -17 -27 -13 c-26 -12 -29
-10 -56 22 -25 29 -31 32 -45 20 -14 -12 -19 -11 -35 3 -18 16 -79 21 -104 8
-8 -4 150 -95 275 -158 38 -19 95 -38 135 -44 42 -7 82 -20 104 -36 19 -13 39
-24 45 -24 5 0 3 4 -4 8 -16 11 -6 40 16 45 10 2 28 0 42 -3 26 -7 26 -7 435
229 175 101 151 95 295 76 68 -9 74 -13 60 -30 -10 -11 -1 -19 52 -46 35 -17
86 -46 113 -64 104 -66 380 -228 390 -228 15 0 154 83 161 96 5 8 2 8 -7 0
-22 -22 -95 -16 -119 9 -23 25 -25 50 -9 97 10 28 9 34 -11 51 -13 11 -26 20
-30 20 -4 0 -7 7 -7 15 0 8 9 15 19 15 10 0 18 -6 18 -14 0 -27 30 -39 90 -37
50 1 61 -2 74 -21 19 -27 21 -99 4 -117 -15 -15 98 40 155 76 44 28 42 32 -28
58 -27 10 -77 31 -110 48 -64 32 -55 31 -264 11 -59 -6 -63 -5 -57 13 6 18 -2
20 -101 31 -155 16 -231 21 -208 14 79 -27 80 -74 1 -78 -36 -2 -52 2 -67 17
-23 23 -23 73 1 75 8 1 71 3 140 4 100 3 77 5 -120 11 -324 10 -720 -1 -720
-20 0 -3 62 -5 137 -4 151 2 147 -10 -7 -21 -52 -3 -124 -13 -160 -20 -43 -9
-71 -11 -83 -4 -10 5 -81 7 -165 4 l-147 -5 143 14 c78 7 148 16 155 18 10 4
-7 13 -62 32 -7 3 -10 12 -7 20 6 17 -27 19 -79 5z m240 -199 c21 -30 32 -52
24 -49 -19 6 -79 86 -79 106 0 19 3 15 55 -57z m1100 50 c-27 -9 -70 -27 -95
-40 -56 -29 -42 -14 25 28 33 20 62 30 85 30 35 -1 34 -1 -15 -18z m-1181
-123 c8 -13 7 -21 -2 -30 -10 -10 -17 -8 -33 9 -23 22 -18 46 8 41 9 -2 21
-11 27 -20z"/>
<path d="M3150 4075 c-7 -9 -11 -17 -9 -19 2 -2 40 -6 84 -10 l80 -6 -50 19
c-87 32 -91 32 -105 16z"/>
<path d="M1405 4030 c-7 -11 -4 -12 25 -12 48 0 61 3 55 12 -3 6 -21 10 -40
10 -19 0 -37 -4 -40 -10z"/>
<path d="M1230 4000 c-12 -7 -8 -10 15 -10 17 0 37 5 45 10 12 7 8 10 -15 10
-16 0 -37 -5 -45 -10z"/>
<path d="M3550 3990 c8 -5 20 -10 25 -10 6 0 3 5 -5 10 -8 5 -19 10 -25 10 -5
0 -3 -5 5 -10z"/>
<path d="M1030 3833 c-67 -65 -128 -133 -135 -151 -8 -18 -22 -35 -32 -39 -69
-26 -154 -107 -175 -166 -6 -15 -13 -26 -16 -23 -4 5 -57 -36 -134 -103 -16
-13 -28 -33 -28 -44 0 -13 -5 -17 -15 -13 -10 4 -40 -15 -83 -51 -37 -31 -68
-56 -69 -57 0 -1 17 -1 38 -1 33 -1 41 3 45 21 3 13 14 30 25 40 10 9 16 21
12 27 -3 5 -1 7 5 4 5 -4 8 -16 5 -27 -6 -24 5 -25 35 -4 20 14 22 14 22 -1 0
-10 7 -15 17 -13 12 2 29 31 50 82 17 43 41 88 52 100 18 17 15 6 -14 -59 -20
-44 -43 -94 -51 -112 -14 -31 -16 -91 -3 -99 7 -4 52 51 61 76 3 8 20 35 38
59 23 32 35 40 43 32 8 -8 8 -14 -1 -23 -14 -14 -16 -58 -3 -58 4 0 31 43 59
96 l51 97 -44 -7 c-25 -3 -57 -8 -72 -12 -27 -5 -26 -4 14 35 22 22 37 41 32
43 -16 5 20 79 57 115 19 18 37 33 40 33 3 0 20 -11 39 -25 l33 -26 78 128
c43 70 95 154 116 186 21 31 37 57 35 57 -3 0 -59 -53 -127 -117z"/>
<path d="M3906 3825 c21 -35 44 -60 44 -48 0 5 -14 24 -31 43 -30 33 -30 34
-13 5z"/>
<path d="M3760 3791 c0 -9 30 -24 36 -18 2 1 -6 8 -16 15 -11 7 -20 8 -20 3z"/>
<path d="M3970 3735 c22 -58 54 -115 64 -115 6 0 16 8 23 19 10 16 4 26 -43
72 -50 49 -54 51 -44 24z"/>
<path d="M3182 3673 c-16 -3 -21 -9 -17 -22 4 -12 -22 -49 -85 -122 -49 -57
-90 -109 -90 -115 0 -11 42 -54 53 -54 13 0 165 198 169 220 3 22 4 23 20 7
23 -24 29 -21 18 9 -16 42 -13 56 13 49 22 -6 22 -6 2 10 -11 9 -28 14 -38 11
-9 -2 -15 0 -11 5 3 5 2 8 -3 8 -4 -1 -18 -4 -31 -6z"/>
<path d="M1772 3640 c-5 -14 -17 -42 -26 -64 -23 -54 -21 -59 22 -52 l37 7
133 -188 c73 -103 137 -194 142 -202 7 -12 17 -10 62 11 l53 26 28 -27 c16
-14 73 -79 128 -143 l99 -117 -32 -5 c-18 -3 -57 -8 -86 -13 l-53 -8 32 -39
c31 -37 34 -38 85 -34 32 3 62 12 73 22 17 15 25 16 55 6 20 -6 41 -8 48 -4 7
5 25 7 40 5 16 -1 28 0 28 3 0 2 -25 19 -56 36 -49 29 -54 34 -42 50 7 10 87
103 176 207 90 103 167 197 171 208 5 12 2 30 -10 50 -11 16 -19 38 -19 48 0
21 -58 49 -110 52 -20 1 -44 7 -55 12 -19 10 -131 29 -147 25 -5 -1 -8 2 -8 7
0 6 -9 9 -20 8 -18 -1 -20 -8 -20 -64 l0 -64 -134 7 c-133 7 -135 7 -188 -20
-29 -15 -60 -36 -70 -47 -9 -10 -19 -19 -21 -19 -3 0 -61 64 -129 142 -68 78
-135 155 -150 172 l-27 31 -9 -25z"/>
<path d="M3308 3624 c13 -9 21 -22 18 -30 -4 -10 3 -14 24 -14 41 0 37 16 -10
40 -47 24 -63 26 -32 4z"/>
<path d="M4215 3590 c3 -5 1 -10 -4 -10 -6 0 -11 -4 -11 -9 0 -12 80 -101 91
-101 5 0 9 13 9 29 0 21 -11 39 -40 65 -39 35 -57 46 -45 26z"/>
<path d="M3444 3534 c3 -9 6 -20 6 -25 0 -13 19 -11 35 5 12 11 10 15 -11 25
-33 15 -37 14 -30 -5z"/>
<path d="M4380 3391 c0 -12 54 -57 91 -77 51 -26 31 4 -31 46 -33 22 -60 36
-60 31z"/>
<path d="M3850 3333 c-11 -25 -20 -47 -20 -50 0 -2 -14 -40 -31 -83 l-32 -80
-79 73 c-175 159 -171 170 -39 -116 75 -161 123 -252 132 -252 14 0 139 130
139 144 0 5 -9 16 -20 26 -24 22 -27 43 -3 24 15 -12 16 -12 10 3 -3 10 0 24
8 32 8 7 12 16 9 19 -5 5 13 47 25 57 3 3 22 36 41 73 19 38 40 73 47 78 16
14 -29 -132 -67 -216 -16 -36 -26 -65 -22 -65 9 1 212 239 212 249 0 5 -193
92 -272 123 -14 6 -21 -2 -38 -39z"/>
<path d="M4287 3339 c-10 -18 -20 -29 -24 -25 -3 3 -12 1 -19 -5 -11 -9 -9
-20 11 -57 14 -26 30 -54 38 -62 24 -27 100 -95 93 -83 -3 6 -1 15 5 19 14 8
31 -16 24 -34 -3 -7 11 -29 30 -50 33 -35 34 -36 35 -13 0 14 -7 32 -14 40
-10 11 -12 22 -6 30 6 11 12 6 24 -20 32 -70 55 -103 61 -88 5 13 -10 51 -75
194 -5 11 -14 37 -21 58 -7 20 -16 37 -20 37 -4 0 3 -30 16 -67 12 -38 21 -72
18 -76 -3 -5 -17 2 -31 15 -14 13 -22 17 -18 11 4 -8 2 -13 -6 -13 -13 0 -83
128 -75 136 2 3 17 0 32 -6 26 -10 27 -9 14 7 -8 10 -24 29 -36 43 -13 14 -23
28 -23 32 0 18 -16 6 -33 -23z m43 -144 c14 -19 14 -19 -2 -6 -10 7 -18 18
-18 24 0 6 1 8 3 6 1 -2 9 -13 17 -24z"/>
<path d="M4170 3345 c0 -12 34 -65 42 -65 13 0 9 11 -17 42 -14 16 -25 27 -25
23z"/>
<path d="M476 3171 c-21 -22 -35 -44 -32 -49 3 -6 -2 -13 -13 -17 -10 -3 -21
-14 -24 -24 -4 -18 -3 -18 26 -2 40 21 48 29 75 72 41 68 25 78 -32 20z"/>
<path d="M596 3099 c-15 -11 -33 -19 -40 -16 -8 3 -24 -5 -37 -19 -12 -13 -28
-24 -35 -24 -16 0 -25 -26 -16 -49 12 -32 64 -4 117 62 50 62 55 80 11 46z"/>
<path d="M4605 3025 c-47 -48 -84 -89 -82 -92 10 -9 40 12 50 36 10 25 11 26
14 4 3 -15 11 -23 24 -23 11 0 18 4 15 9 -3 5 7 22 23 37 27 28 59 100 48 111
-3 2 -44 -34 -92 -82z"/>
<path d="M1132 3008 c-31 -29 -59 -54 -61 -56 -3 -1 0 -7 7 -14 14 -14 69 -21
77 -9 3 5 -5 7 -17 3 -16 -4 -19 -2 -13 8 5 9 4 11 -3 6 -24 -14 -11 8 34 60
25 30 43 54 39 54 -3 0 -32 -24 -63 -52z"/>
<path d="M405 2970 c3 -5 11 -10 16 -10 6 0 7 5 4 10 -3 6 -11 10 -16 10 -6 0
-7 -4 -4 -10z"/>
<path d="M4440 2928 c-96 -20 -120 -29 -120 -43 0 -8 -9 -15 -20 -15 -11 0
-20 5 -20 10 0 19 -23 10 -76 -30 -29 -22 -57 -40 -61 -40 -5 0 -25 -14 -45
-30 -27 -22 -36 -37 -34 -55 3 -25 -23 -43 -43 -30 -5 3 -12 1 -15 -3 -7 -12
93 -52 129 -52 37 0 83 29 65 40 -10 6 -7 14 9 31 20 22 29 59 14 59 -5 0 -19
10 -33 21 l-25 20 34 -16 c28 -14 41 -15 71 -6 46 13 60 14 40 1 -9 -6 -11
-10 -3 -10 7 0 10 -7 7 -15 -5 -12 -10 -12 -27 -4 -12 7 -4 -5 18 -24 22 -20
43 -36 47 -37 7 0 148 223 148 234 0 7 -1 7 -60 -6z"/>
<path d="M1160 2916 c0 -2 7 -7 16 -10 8 -3 12 -2 9 4 -6 10 -25 14 -25 6z"/>
<path d="M550 2891 c0 -11 -4 -21 -9 -23 -7 -2 7 -40 63 -163 2 -5 24 11 48
36 69 73 87 86 98 69 8 -12 10 -10 10 7 0 12 7 29 15 37 18 18 25 15 -103 41
-100 20 -122 20 -122 -4z"/>
<path d="M470 2860 c6 -11 13 -20 16 -20 2 0 0 9 -6 20 -6 11 -13 20 -16 20
-2 0 0 -9 6 -20z"/>
<path d="M3910 2821 c-71 -15 -75 -18 -78 -45 -2 -17 0 -26 6 -22 6 3 12 0 14
-6 3 -9 18 -3 48 17 23 17 58 38 76 48 61 31 47 33 -66 8z"/>
<path d="M1060 2809 c14 -6 54 -18 89 -27 l64 -17 28 -70 c16 -38 38 -82 49
-97 12 -16 18 -32 16 -37 -3 -5 1 -11 9 -15 32 -12 14 -24 -22 -14 -54 13
-185 42 -358 77 -208 42 -286 59 -314 67 -23 7 -23 6 -10 -13 31 -45 533 -552
541 -547 5 3 7 0 6 -8 -2 -7 3 -12 10 -10 6 1 12 -4 12 -10 0 -7 70 -85 155
-173 l154 -160 -24 62 c-31 77 -31 87 -5 73 24 -13 42 -45 49 -89 6 -32 10
-35 69 -52 41 -12 60 -14 55 -6 -4 7 5 4 19 -5 28 -19 108 -40 108 -29 0 3
-16 17 -35 30 -19 13 -33 28 -32 34 1 6 -5 11 -13 12 -9 0 -14 8 -12 19 2 10
-1 15 -7 12 -10 -7 -82 55 -328 280 -98 90 -127 111 -144 107 -19 -5 -21 -3
-17 15 5 16 -12 38 -77 101 -45 45 -86 81 -89 81 -4 0 -2 -10 5 -22 7 -15 -3
-9 -30 17 -44 44 -57 73 -15 34 l27 -24 -19 30 c-10 16 -47 59 -81 94 -84 87
-86 105 -7 50 25 -17 42 -35 38 -41 -4 -6 -3 -8 3 -5 6 4 26 -6 45 -22 164
-143 181 -155 173 -131 -4 14 -26 60 -48 103 -22 42 -38 79 -36 81 2 1 18 -1
36 -6 21 -5 58 -37 113 -98 45 -49 85 -88 89 -87 4 1 49 -36 100 -83 87 -80
139 -118 97 -71 -11 11 -17 21 -14 21 3 0 39 -35 80 -77 40 -43 105 -109 142
-148 l69 -70 -82 95 c-44 52 -81 97 -81 101 0 3 9 16 19 28 l20 23 16 -31 c8
-17 18 -31 20 -31 3 0 -4 18 -15 41 -30 57 -19 72 12 17 55 -93 52 -63 -5 48
-56 111 -113 252 -104 261 2 2 26 -14 53 -35 27 -21 65 -49 84 -62 33 -23 32
-21 -12 29 -54 60 -58 71 -25 71 27 0 114 -120 101 -142 -4 -7 -4 -10 1 -6 10
10 48 -39 40 -52 -4 -6 -10 -8 -15 -5 -12 7 6 -53 21 -71 16 -20 36 -17 53 8
17 24 21 22 84 -36 22 -20 32 -25 32 -15 0 8 -5 20 -11 26 -16 16 -1 35 23 27
14 -4 18 -2 14 5 -10 16 3 13 20 -4 9 -8 11 -15 6 -15 -5 0 -9 -6 -9 -13 0 -7
-3 -25 -7 -40 -9 -39 8 -34 22 7 16 43 89 156 101 156 23 0 22 -42 -4 -85 -14
-25 -28 -45 -31 -45 -3 0 -2 6 2 13 4 6 3 8 -1 4 -5 -4 -10 -13 -11 -20 -4
-27 -40 -72 -58 -72 -27 0 -74 -135 -51 -148 8 -4 15 -18 16 -30 1 -19 2 -18
14 7 l13 30 28 -41 c29 -42 61 -61 61 -37 0 7 -5 10 -11 7 -6 -3 -1 5 10 18
30 33 37 64 23 91 -11 20 -10 21 3 11 8 -7 19 -9 23 -5 5 4 5 0 0 -8 -5 -8 3
-4 17 8 26 24 26 24 33 3 3 -11 3 -26 -1 -32 -4 -7 -3 -9 4 -5 5 3 12 1 14 -5
2 -7 39 28 83 77 43 49 98 106 122 128 43 38 44 38 65 20 11 -11 43 -46 70
-79 l50 -60 -58 61 c-97 100 -91 103 -88 -44 1 -70 0 -112 -3 -94 -2 17 -9 32
-14 32 -6 0 -7 -5 -3 -12 5 -7 2 -9 -9 -5 -11 4 -14 2 -10 -8 3 -8 10 -12 16
-8 6 3 7 1 3 -6 -4 -6 -1 -23 8 -36 9 -13 16 -44 16 -67 0 -28 3 -38 9 -30 5
8 6 33 4 56 -5 37 -2 44 14 48 11 3 35 -1 54 -9 19 -8 48 -12 64 -9 39 7 53
-3 65 -43 7 -27 5 -41 -11 -73 -25 -48 -21 -55 14 -27 15 11 27 17 27 13 0 -4
9 3 19 15 l20 23 34 -26 c34 -26 67 -34 67 -17 0 6 -25 37 -55 69 -30 33 -55
64 -55 69 0 4 -12 25 -26 46 -30 45 -38 74 -18 74 8 0 14 -4 14 -9 0 -4 -5 -8
-11 -8 -6 0 -3 -7 5 -15 12 -12 20 -13 35 -6 16 9 24 5 49 -25 28 -34 31 -35
41 -16 6 10 8 22 5 25 -6 6 26 47 37 47 7 0 85 -113 91 -132 5 -15 28 -1 28
18 0 24 -67 158 -93 186 -31 33 -29 37 87 138 47 41 86 80 86 85 0 6 -5 3 -11
-5 -8 -11 -9 3 -4 50 4 36 7 71 8 77 1 18 35 27 51 13 15 -11 10 -53 -5 -44
-5 3 -6 -2 -3 -11 4 -8 -1 -27 -11 -41 -9 -14 -14 -28 -11 -32 3 -3 6 1 6 8 0
7 3 10 6 7 4 -4 20 3 35 14 16 11 29 18 29 14 0 -8 -96 -320 -115 -374 -8 -24
-13 -46 -11 -48 6 -6 69 125 69 143 0 8 4 14 8 14 11 0 48 124 53 180 9 95 14
103 79 141 34 20 71 40 82 44 18 8 17 9 -9 13 -17 2 -188 -4 -380 -13 -309
-15 -413 -16 -871 -5 -286 6 -536 12 -555 13 -28 2 -8 11 99 47 73 25 124 46
113 48 -12 2 -63 -13 -115 -32 -52 -19 -113 -38 -136 -42 -22 -4 -41 -10 -41
-15 0 -5 -10 -9 -22 -8 -22 0 -22 1 -3 9 11 5 15 9 8 9 -6 1 -19 4 -29 8 -12
4 -15 3 -10 -5 5 -8 0 -12 -14 -12 -12 0 -18 5 -15 10 3 6 1 10 -5 10 -18 0
-31 47 -20 72 10 22 10 21 7 -4 -8 -52 66 -77 100 -34 11 13 34 27 52 31 20 4
35 15 38 25 3 10 12 21 21 25 38 14 171 99 166 106 -2 4 6 9 18 11 13 2 -53 2
-147 1 -93 -2 -176 -6 -184 -8 -8 -3 -18 0 -23 7 -5 9 -7 7 -5 -7 8 -40 19
-54 67 -74 26 -11 50 -28 54 -36 3 -10 11 -13 18 -9 9 5 10 4 3 -3 -5 -6 -23
-14 -39 -17 -26 -6 -28 -5 -17 8 8 10 9 16 3 16 -6 0 -14 -4 -17 -10 -7 -12
-75 30 -75 48 0 6 -5 12 -11 12 -7 0 -8 14 -4 39 l6 39 -76 7 c-42 4 -78 5
-81 3 -2 -3 -39 3 -82 13 -85 20 -110 23 -72 8z m155 -272 c21 -8 198 -217
183 -217 -2 0 -55 51 -117 114 -108 108 -116 120 -66 103z m830 -166 c2 -12 0
-19 -6 -16 -5 4 -9 16 -9 27 0 26 9 19 15 -11z m-1057 -13 c14 -14 16 -28 2
-28 -5 0 -14 9 -20 20 -12 22 -1 27 18 8z m1119 -30 c-3 -8 -6 -5 -6 6 -1 11
2 17 5 13 3 -3 4 -12 1 -19z m-877 -265 c0 -27 -18 -12 -22 19 -5 28 -4 29 9
13 7 -11 13 -25 13 -32z m144 -120 c9 -18 14 -33 12 -33 -6 0 -36 55 -36 66 0
11 5 3 24 -33z m134 -35 c32 -29 73 -65 92 -79 29 -22 33 -29 22 -42 -11 -13
-17 -12 -45 14 -17 16 -34 29 -38 29 -4 0 -17 16 -30 35 -13 19 -29 35 -36 35
-13 0 -33 31 -33 49 0 18 8 13 68 -41z"/>
<path d="M1605 1800 c-3 -5 -1 -10 4 -10 6 0 11 5 11 10 0 6 -2 10 -4 10 -3 0
-8 -4 -11 -10z"/>
<path d="M990 2795 c7 -9 15 -13 17 -11 7 7 -7 26 -19 26 -6 0 -6 -6 2 -15z"/>
<path d="M535 2763 c15 -32 25 -42 25 -24 0 5 -9 19 -20 32 l-21 24 16 -32z"/>
<path d="M3674 2779 c-4 -7 -22 -9 -50 -4 -74 11 -107 -1 -132 -48 -12 -23
-38 -52 -57 -65 -39 -25 -44 -41 -15 -49 11 -3 17 -10 14 -15 -4 -6 3 -5 15 1
12 7 27 9 33 5 7 -4 8 -3 4 4 -3 6 2 16 13 21 24 13 34 14 27 3 -8 -13 53 -7
66 6 7 7 8 12 2 12 -6 0 -15 -5 -21 -11 -11 -11 -33 -5 -33 10 0 4 12 13 26
19 14 7 23 8 19 2 -3 -5 1 -10 9 -10 22 0 20 -13 -6 -36 -25 -20 -54 -24 -78
-9 -12 7 -13 6 -3 -6 10 -13 9 -20 -7 -37 -18 -19 -18 -21 -2 -25 12 -3 11 -5
-5 -6 -13 0 -23 3 -23 7 0 5 -27 9 -60 10 -46 1 -72 8 -114 32 -33 18 -57 26
-61 20 -3 -6 -16 -10 -28 -11 -25 0 145 -54 203 -64 l38 -6 -35 -67 c-75 -141
-156 -289 -181 -331 -15 -26 -20 -41 -12 -35 8 5 17 9 20 9 8 1 79 75 72 75
-12 0 22 20 34 20 24 0 24 -44 0 -75 -36 -49 -39 -56 -19 -48 29 10 57 35 215
186 87 82 157 141 165 139 9 -2 20 2 24 10 7 11 9 11 9 0 0 -8 5 -10 12 -6 7
4 2 -7 -11 -24 -21 -30 -73 -77 -216 -194 -31 -27 -53 -48 -49 -48 12 -1 -86
-90 -98 -90 -5 0 -7 -4 -4 -8 6 -10 -127 -145 -135 -138 -3 3 -40 -24 -82 -60
-43 -36 -83 -62 -89 -58 -7 4 -8 3 -4 -4 5 -8 2 -10 -8 -6 -9 3 -16 10 -16 14
0 13 26 30 34 22 4 -4 6 -2 5 3 -2 6 25 37 60 70 86 81 138 145 147 180 5 20
4 26 -5 21 -16 -10 -14 0 5 30 9 13 14 27 12 30 -3 2 -13 -8 -23 -23 -32 -50
-57 -73 -70 -63 -8 6 -17 0 -29 -20 -21 -36 -59 -61 -50 -33 3 10 -23 -12 -58
-48 -59 -61 -63 -68 -65 -115 l-1 -49 45 50 c24 28 39 40 33 27 -6 -13 -29
-41 -51 -63 -21 -21 -39 -43 -39 -49 0 -17 -19 -11 -32 10 -7 11 -16 20 -20
20 -13 0 -3 -54 15 -81 17 -25 17 -29 1 -75 -22 -66 -192 -418 -204 -422 -5
-2 -6 -11 -3 -20 6 -15 5 -15 -10 -3 -15 12 -17 12 -11 -4 5 -12 4 -16 -4 -11
-13 8 -18 1 -27 -44 -7 -34 -6 -34 10 -15 16 20 16 20 5 -2 -6 -13 -18 -23
-26 -23 -8 0 -12 -4 -9 -10 3 -5 1 -10 -6 -10 -8 0 -7 -5 2 -17 12 -15 12 -16
-3 -10 -14 5 -18 1 -18 -16 0 -12 -9 -33 -20 -47 -22 -29 -26 -44 -7 -35 6 4
5 1 -4 -7 -9 -7 -14 -19 -11 -26 2 -7 -2 -11 -10 -10 -8 2 -12 -4 -10 -16 3
-17 2 -18 -12 -7 -14 12 -16 11 -10 -4 5 -13 4 -16 -4 -11 -7 4 -12 3 -12 -3
0 -6 -6 -8 -13 -5 -21 8 -35 -17 -39 -66 -2 -25 -7 -44 -13 -44 -15 2 -76 106
-182 312 -52 103 -122 234 -153 292 -32 58 -80 150 -109 206 l-51 101 -73 13
c-39 7 -82 16 -94 21 -13 5 -23 6 -23 3 0 -2 44 -64 97 -137 134 -184 331
-464 450 -642 108 -162 124 -179 164 -183 25 -3 35 11 130 165 92 150 472 724
506 764 22 26 16 27 -54 12 -125 -26 -124 -20 16 108 69 64 128 115 129 114 2
-2 5 -34 7 -72 2 -64 0 -70 -28 -100 -34 -37 -34 -37 27 -22 31 8 61 28 109
74 74 70 127 111 127 97 0 -5 -32 -39 -70 -76 -74 -69 -74 -70 18 -57 32 5 55
4 59 -2 3 -6 2 -8 -3 -5 -17 10 -49 -9 -55 -33 -3 -13 -11 -23 -17 -22 -6 2
-9 -3 -7 -10 3 -6 -11 -22 -30 -35 -19 -12 -35 -29 -35 -37 0 -8 -7 -15 -16
-15 -8 0 -13 -4 -9 -9 3 -5 1 -12 -5 -16 -5 -3 -10 -10 -10 -16 0 -5 13 3 30
17 16 15 27 32 23 38 -3 6 -3 8 2 4 10 -10 37 11 29 23 -3 5 1 9 8 9 15 0 74
71 70 83 -1 5 1 6 6 3 5 -3 20 6 33 20 21 22 21 24 4 18 -20 -7 -20 -7 0 15
14 16 15 22 5 19 -12 -2 -14 6 -12 37 2 22 7 44 12 49 12 12 30 -33 22 -53
-16 -42 153 124 381 373 49 53 95 96 102 96 8 0 22 11 33 25 11 13 23 21 28
17 5 -4 2 1 -5 11 -8 9 -11 20 -7 24 3 3 6 1 6 -5 0 -7 5 -11 11 -10 8 2 237
228 369 364 2 3 -31 -10 -75 -29 -44 -19 -99 -37 -123 -41 -122 -19 -138 -25
-166 -68 l-27 -41 27 18 27 18 -23 -34 c-13 -18 -41 -48 -62 -67 -21 -19 -38
-40 -38 -46 0 -7 -11 -23 -25 -36 -22 -21 -25 -22 -25 -5 0 10 7 27 17 37 9
10 13 21 10 24 -3 3 -31 -18 -62 -47 -31 -30 -63 -54 -70 -54 -7 0 -28 -13
-47 -30 -18 -16 -70 -63 -115 -102 -44 -40 -84 -73 -88 -73 -5 0 29 35 76 78
109 101 396 392 386 392 -29 0 -83 -39 -152 -110 -44 -45 -157 -159 -252 -253
-132 -132 -170 -176 -163 -187 7 -12 13 -11 36 10 l27 25 -22 -38 c-27 -44
-22 -56 14 -33 14 9 25 12 25 7 0 -5 -10 -15 -22 -24 -39 -25 -73 -59 -70 -68
1 -5 -22 -24 -51 -43 -67 -43 -100 -78 -43 -46 21 11 40 19 42 17 5 -5 -99
-87 -109 -87 -4 0 -7 19 -7 42 0 32 7 49 28 71 l27 30 -27 -18 c-28 -17 -28
-17 -28 7 0 19 64 87 283 299 155 151 307 298 337 327 39 36 50 52 37 52 -21
0 -74 -25 -100 -48 -16 -15 -17 -14 -11 1 8 21 9 21 -96 1 -75 -15 -90 -21
-129 -58 -28 -26 -39 -33 -32 -19 6 12 16 25 21 28 23 14 7 25 -37 26 l-48 2
40 6 c22 4 48 3 57 -1 20 -10 35 12 109 150 42 81 43 84 24 98 -22 17 -71 19
-81 3z m-76 -51 c16 -16 15 -28 -2 -28 -17 0 -38 24 -29 33 9 10 17 9 31 -5z
m-31 -144 c-3 -3 -12 -4 -19 -1 -8 3 -5 6 6 6 11 1 17 -2 13 -5z m-17 -20 c0
-2 -9 -4 -20 -4 -11 0 -20 4 -20 9 0 5 9 7 20 4 11 -3 20 -7 20 -9z m204 -112
c3 -5 -1 -9 -9 -9 -8 0 -12 4 -9 9 3 4 7 8 9 8 2 0 6 -4 9 -8z m310 -18 c-10
-14 -38 -39 -63 -57 -25 -17 -65 -49 -89 -71 -23 -21 -44 -37 -47 -34 -5 5
196 188 208 188 4 0 0 -12 -9 -26z m86 22 c0 -2 -8 -10 -17 -17 -16 -13 -17
-12 -4 4 13 16 21 21 21 13z m-715 -174 c-15 -16 -16 -15 -4 12 7 15 15 23 17
16 3 -7 -3 -19 -13 -28z m355 -87 c-35 -36 -45 -39 -34 -11 5 14 47 44 63 46
3 0 -10 -16 -29 -35z"/>
<path d="M3100 2770 c10 -7 -14 -10 -77 -10 -52 0 -93 -4 -93 -9 0 -6 10 -17
23 -26 17 -12 19 -17 8 -24 -9 -6 1 -13 35 -25 56 -19 67 -20 36 -3 -21 12
-18 14 37 25 50 10 66 10 103 -3 59 -20 71 -19 63 5 -5 16 0 23 27 34 18 8 53
17 78 22 40 6 42 8 20 15 -39 11 -278 11 -260 -1z"/>
<path d="M2146 2758 c4 -6 21 -8 42 -5 40 7 35 -3 -11 -20 -23 -8 -26 -12 -12
-12 11 -1 68 -42 128 -91 59 -50 109 -90 110 -90 2 0 4 6 4 13 1 6 2 38 4 69
1 36 6 55 12 51 6 -4 8 0 4 11 -4 10 -7 24 -7 32 0 8 -5 14 -11 14 -5 0 -7 -5
-3 -12 5 -7 3 -8 -5 -3 -26 15 7 24 104 27 90 3 97 4 72 15 -37 17 -441 18
-431 1z"/>
<path d="M2055 2752 c-5 -4 -11 -14 -13 -24 -2 -12 3 -15 18 -11 11 3 17 9 14
14 -3 5 1 6 9 3 8 -3 17 2 20 10 5 12 0 16 -16 16 -12 0 -26 -4 -32 -8z"/>
<path d="M2865 2725 c28 -13 57 -24 65 -24 13 1 13 1 0 6 -8 3 -23 14 -33 24
-11 11 -31 19 -50 18 -31 -1 -31 -1 18 -24z"/>
<path d="M2573 2728 c-38 -8 -41 -11 -33 -32 4 -12 6 -38 4 -57 -2 -19 -5 -52
-7 -74 -2 -23 -7 -47 -12 -54 -11 -19 8 -8 63 36 43 35 60 58 65 90 1 10 6 24
10 31 5 6 5 12 1 12 -4 0 3 8 14 19 26 22 28 33 5 24 -11 -4 -14 -3 -9 5 9 14
-38 14 -101 0z"/>
<path d="M2720 2709 c0 -6 5 -7 12 -3 6 4 8 3 5 -4 -4 -5 -16 -8 -27 -5 -17 5
-20 0 -20 -28 l0 -33 35 34 c40 39 42 45 15 47 -11 1 -20 -3 -20 -8z"/>
<path d="M1783 2695 c-35 -10 -36 -11 -18 -28 10 -10 26 -16 36 -14 11 3 19 1
19 -4 0 -5 -7 -9 -15 -9 -8 0 -15 -4 -15 -10 0 -16 18 -12 150 29 95 30 119
40 100 45 -39 8 -217 2 -257 -9z"/>
<path d="M866 2671 c-7 -11 22 -23 36 -15 5 4 20 2 31 -4 12 -5 42 -16 67 -23
55 -16 52 -15 70 -21 129 -45 132 -35 9 31 -50 27 -82 38 -97 34 -12 -3 -19
-9 -16 -14 3 -5 1 -9 -5 -9 -5 0 -13 5 -17 11 -4 6 -19 9 -36 5 -18 -3 -27 -2
-23 4 3 6 2 10 -4 10 -5 0 -12 -4 -15 -9z"/>
<path d="M3075 2630 c33 -11 65 -19 70 -19 16 1 -57 26 -95 32 -19 4 -8 -2 25
-13z"/>
<path d="M3265 2630 c-3 -5 1 -10 10 -10 9 0 13 5 10 10 -3 6 -8 10 -10 10 -2
0 -7 -4 -10 -10z"/>
<path d="M3448 2573 c7 -3 16 -2 19 1 4 3 -2 6 -13 5 -11 0 -14 -3 -6 -6z"/>
<path d="M1253 2314 c9 -11 17 -27 17 -35 0 -12 -2 -12 -9 0 -5 7 -14 11 -20
7 -7 -5 -8 -1 -4 11 6 16 5 16 -10 4 -9 -7 -17 -19 -17 -26 0 -28 64 -96 152
-162 160 -120 208 -132 110 -28 -31 33 -84 91 -118 128 -34 36 -64 64 -68 60
-3 -3 -6 0 -6 9 0 8 -10 23 -22 34 -23 19 -23 19 -5 -2z"/>
<path d="M1756 2224 c-10 -26 -7 -59 8 -80 12 -15 17 -16 27 -7 10 10 10 21 0
52 -13 46 -26 58 -35 35z"/>
<path d="M1510 2186 c0 -2 8 -10 18 -17 15 -13 16 -12 3 4 -13 16 -21 21 -21
13z"/>
<path d="M1560 2125 c13 -14 26 -25 28 -25 3 0 -5 11 -18 25 -13 14 -26 25
-28 25 -3 0 5 -11 18 -25z"/>
<path d="M1824 2129 c2 -14 14 -48 26 -74 12 -27 23 -61 24 -75 3 -39 59 -151
73 -145 7 2 15 -6 19 -17 6 -19 8 -16 21 18 26 71 26 74 4 98 -12 12 -19 25
-16 27 2 3 -10 4 -28 2 -31 -3 -33 -1 -79 94 -26 54 -46 86 -44 72z"/>
<path d="M2281 2005 c-46 -52 -94 -110 -107 -129 -22 -32 -23 -37 -9 -68 8
-18 14 -26 15 -17 0 23 27 31 53 17 32 -17 137 -47 137 -40 0 4 -9 21 -20 37
-11 17 -20 32 -20 35 0 3 23 5 52 5 46 0 54 -3 65 -25 7 -14 10 -33 7 -42 -4
-13 -1 -16 9 -12 16 6 23 94 8 94 -5 0 -28 16 -51 35 l-42 36 -36 -21 c-19
-12 -36 -19 -39 -17 -5 5 123 77 137 77 6 0 10 3 10 6 0 5 -60 92 -80 116 -3
4 -43 -35 -89 -87z"/>
<path d="M1723 2040 c6 -17 27 -45 45 -63 l34 -32 -16 33 c-9 17 -23 32 -30
32 -7 0 -16 14 -19 30 -4 17 -11 30 -16 30 -5 0 -4 -13 2 -30z"/>
<path d="M3305 1988 l-50 -53 53 50 c28 27 52 51 52 52 0 8 -9 -1 -55 -49z"/>
<path d="M3400 1955 c-8 -9 -8 -15 -2 -15 18 0 42 12 42 21 0 14 -26 10 -40
-6z"/>
<path d="M1839 1942 c6 -12 16 -24 22 -28 8 -4 8 -1 0 14 -6 12 -16 24 -22 28
-8 4 -8 1 0 -14z"/>
<path d="M1668 1916 c-11 -8 -15 -20 -11 -36 4 -16 3 -21 -5 -16 -30 18 -6
-15 49 -69 38 -37 59 -52 55 -40 -18 65 -24 110 -15 116 12 7 -27 59 -44 59
-7 0 -20 -6 -29 -14z"/>
<path d="M1800 1907 c0 -2 15 -16 33 -33 l32 -29 -29 33 c-28 30 -36 37 -36
29z"/>
<path d="M1845 1798 c28 -23 75 -66 105 -94 l55 -52 185 -6 185 -6 -104 53
c-106 55 -117 57 -209 45 -7 -1 -24 -15 -38 -31 l-24 -29 -70 68 c-39 37 -85
74 -103 81 -29 12 -27 9 18 -29z"/>
<path d="M1887 1808 c86 -98 81 -94 88 -75 10 24 -2 50 -20 43 -8 -3 -28 9
-47 29 -41 44 -58 46 -21 3z"/>
<path d="M2457 1736 c-6 -15 1 -26 15 -26 4 0 8 9 8 20 0 23 -15 27 -23 6z"/>
<path d="M2777 1705 c-16 -14 -33 -23 -38 -19 -5 3 -8 0 -7 -7 2 -8 -11 -16
-32 -20 -38 -7 -38 -8 0 -15 40 -8 251 7 244 17 -9 15 -107 69 -124 69 -8 -1
-28 -12 -43 -25z"/>
<path d="M2677 1695 c-3 -7 1 -16 8 -19 20 -7 26 6 10 21 -10 10 -14 9 -18 -2z"/>
<path d="M2609 1685 c-3 -2 -14 -6 -25 -8 -32 -6 -72 -25 -79 -38 -6 -9 6 -10
45 -6 59 6 55 4 64 35 7 21 5 28 -5 17z"/>
<path d="M2630 1680 c0 -5 7 -10 16 -10 8 0 12 5 9 10 -3 6 -10 10 -16 10 -5
0 -9 -4 -9 -10z"/>
<path d="M2630 1650 c-12 -8 -10 -10 8 -10 13 0 20 4 17 10 -7 12 -6 12 -25 0z"/>
<path d="M3251 1488 c-14 -23 -14 -23 8 -4 22 20 25 26 13 26 -4 0 -13 -10
-21 -22z"/>
<path d="M3097 1329 c-8 -11 -24 -21 -35 -22 -12 0 -18 -6 -15 -14 3 -7 -2
-13 -11 -13 -23 0 -154 -137 -207 -217 -8 -13 -19 -21 -22 -18 -4 3 -5 2 -2
-1 2 -4 -14 -30 -37 -58 -22 -28 42 34 143 138 174 179 217 226 205 226 -3 0
-11 -9 -19 -21z m-107 -93 c0 -2 -8 -10 -17 -17 -16 -13 -17 -12 -4 4 13 16
21 21 21 13z"/>
<path d="M1985 1240 c10 -11 20 -20 23 -20 3 0 -3 9 -13 20 -10 11 -20 20 -23
20 -3 0 3 -9 13 -20z"/>
<path d="M2040 1199 c0 -4 13 -22 30 -40 16 -19 30 -30 30 -26 0 4 -13 22 -30
40 -16 18 -30 29 -30 26z"/>
</g>
</svg>
